<?xml version="1.0" encoding="UTF-8"?>
<svg width="251px" height="226px" viewBox="0 0 251 226" version="1.1" xmlns="http://www.w3.org/2000/svg" xmlns:xlink="http://www.w3.org/1999/xlink">
    <!-- Generator: Sketch 61.2 (89653) - https://sketch.com -->
    <title>Atoll логотип</title>
    <desc>Created with Sketch.</desc>
    <g id="v2" stroke="none" stroke-width="1" fill="none" fill-rule="evenodd">
        <g id="Atoll-логотип">
            <path d="M30.070064,184.448437 C33.601304,184.448437 35.661194,185.448955 37.897646,189.627589 L37.897646,189.627589 L56.260094,224.057179 C56.78978,224.998843 56.613218,225.646237 55.436138,225.646237 L55.436138,225.646237 L46.49033,225.646237 C45.666374,225.646237 45.31325,225.410821 44.960126,224.822281 L44.960126,224.822281 L41.370032,217.936363 L15.827396,217.936363 L12.296156,224.822281 C12.001886,225.410821 11.589908,225.646237 10.765952,225.646237 L10.765952,225.646237 L1.584728,225.646237 C0.466502,225.646237 0.28994,224.998843 0.760772,224.057179 L0.760772,224.057179 L18.82895,189.627589 C21.006548,185.448955 23.184146,184.448437 25.950284,184.448437 L25.950284,184.448437 Z M98.51732,184.448437 C99.517838,184.448437 100.047524,184.978123 100.047524,185.978641 L100.047524,185.978641 L100.047524,192.864559 C100.047524,193.865077 99.517838,194.394763 98.51732,194.394763 L98.51732,194.394763 L80.802266,194.394763 L80.802266,224.116033 C80.802266,225.116551 80.27258,225.646237 79.272062,225.646237 L79.272062,225.646237 L71.679896,225.646237 C70.620524,225.646237 70.090838,225.116551 70.090838,224.116033 L70.090838,224.116033 L70.090838,194.394763 L52.434638,194.394763 C51.375266,194.394763 50.904434,193.865077 50.904434,192.864559 L50.904434,192.864559 L50.904434,185.978641 C50.904434,184.978123 51.375266,184.448437 52.434638,184.448437 L52.434638,184.448437 Z M138.361154,184.448437 C150.426224,184.448437 155.016836,188.685925 155.016836,199.985893 L155.016836,199.985893 L155.016836,210.108781 C155.016836,221.408749 150.426224,225.646237 138.361154,225.646237 L138.361154,225.646237 L119.998706,225.646237 C107.933636,225.646237 103.343024,221.408749 103.343024,210.108781 L103.343024,210.108781 L103.343024,199.985893 C103.343024,188.685925 107.933636,184.448437 119.998706,184.448437 L119.998706,184.448437 Z M171.142832,184.448437 C172.14335,184.448437 172.673036,184.978123 172.673036,185.978641 L172.673036,185.978641 L172.673036,209.049409 C172.673036,214.346269 173.90897,215.699911 179.029268,215.699911 L179.029268,215.699911 L202.806284,215.699911 C203.865656,215.699911 204.395342,216.229597 204.395342,217.230115 L204.395342,217.230115 L204.395342,224.116033 C204.395342,225.116551 203.865656,225.646237 202.806284,225.646237 L202.806284,225.646237 L178.61729,225.646237 C166.55222,225.646237 161.961608,221.408749 161.961608,210.108781 L161.961608,210.108781 L161.961608,185.978641 C161.961608,184.978123 162.491294,184.448437 163.491812,184.448437 L163.491812,184.448437 Z M217.578372,184.448437 C218.57889,184.448437 219.108576,184.978123 219.108576,185.978641 L219.108576,185.978641 L219.108576,209.049409 C219.108576,214.346269 220.34451,215.699911 225.464808,215.699911 L225.464808,215.699911 L249.241824,215.699911 C250.301196,215.699911 250.830882,216.229597 250.830882,217.230115 L250.830882,217.230115 L250.830882,224.116033 C250.830882,225.116551 250.301196,225.646237 249.241824,225.646237 L249.241824,225.646237 L225.05283,225.646237 C212.98776,225.646237 208.397148,221.408749 208.397148,210.108781 L208.397148,210.108781 L208.397148,185.978641 C208.397148,184.978123 208.926834,184.448437 209.927352,184.448437 L209.927352,184.448437 Z M137.949176,194.159347 L120.410684,194.159347 C115.290386,194.159347 114.054452,195.454135 114.054452,200.809849 L114.054452,200.809849 L114.054452,209.284825 C114.054452,214.640539 115.290386,215.994181 120.410684,215.994181 L120.410684,215.994181 L137.949176,215.994181 C143.069474,215.994181 144.305408,214.640539 144.305408,209.284825 L144.305408,209.284825 L144.305408,200.809849 C144.305408,195.454135 143.069474,194.159347 137.949176,194.159347 L137.949176,194.159347 Z M28.657568,194.335909 L28.363298,194.335909 C28.069028,194.335909 27.892466,194.453617 27.65705,194.747887 L27.65705,194.747887 L19.947176,209.873365 L37.191398,209.873365 L29.304962,194.747887 C29.1284,194.453617 28.951838,194.335909 28.657568,194.335909 L28.657568,194.335909 Z" id="Combined-Shape" fill="#151616"></path>
            <path d="M56.9462,77.8395 C65.8547,85.6849 75.6679,92.4277 86.1723,97.9269 C83.0647,95.9302 80.3664,93.2962 78.2781,90.1535 C69.8838,69.5912 69.1375,47.1193 76.0396,22.7374 C92.2824,24.8523 109.9334,23.1433 125.562,18.2393 C141.1905,23.1433 158.8418,24.8523 175.0846,22.7374 C180.1669,40.6917 181.102,57.6109 177.8901,73.4942 C180.8186,87.1323 181.2883,101.1839 179.2771,114.9872 L183.607,106.8141 C197.2433,81.0735 199.5349,53.6339 193.2612,25.9303 C191.6123,18.6492 188.8993,12.5057 186.8634,5.3145 C170.2045,6.1901 153.354,7.5629 137.0063,3.8966 C133.099,3.0204 129.3737,1.225 125.562,0.0287 C121.3638,1.346 117.3202,3.2319 112.9963,4.1404 C97.0003,7.5006 80.5384,6.1703 64.2605,5.3145 C62.2329,12.4776 59.5294,18.5923 57.8825,25.8439 C53.895,43.4028 53.3468,60.8565 56.9462,77.8395" id="Fill-1" fill="#F1B800"></path>
            <path d="M116.1472,73.1187 C116.0242,80.796 111.8746,93.0953 98.7601,96.7792 C104.5436,100.3369 111.872,100.1892 117.5076,96.4016 C111.5852,101.0782 103.9758,103.0636 96.5233,101.8767 C92.7971,101.2831 89.2799,99.9236 86.1723,97.9269 C75.6679,92.4277 65.8547,85.6849 56.9462,77.8395 C58.5722,85.5126 61.0451,93.0896 64.4297,100.5365 C77.3103,112.2566 95.4288,116.2903 112.0648,111.142 C98.3604,116.2245 83.269,116.1117 69.6418,110.8248 L71.8468,114.9872 C75.5288,120.591 79.4139,125.8334 83.5023,130.713 C100.2897,132.8316 117.2352,128.244 130.6606,117.9455 C119.3938,129.0675 104.4453,135.6801 88.6367,136.5359 C94.0217,142.3356 99.7327,147.555 105.7688,152.1945 C130.3545,145.537 149.8007,126.7246 157.2694,102.3733 C151.9276,126.9985 134.3173,147.157 110.633,155.7585 C115.4159,159.096 120.3924,162.0894 125.562,164.7387 C137.4998,158.6212 148.4069,150.6683 158.2837,140.88 C167.5893,127.1011 172.1117,110.6465 171.1547,94.0471 C173.7515,105.4288 173.19,117.3037 169.531,128.3897 C172.9243,124.1797 176.1729,119.712 179.2771,114.9872 C181.2883,101.1839 180.8186,87.1323 177.8901,73.4942 C171.7298,52.7041 158.3534,37.1198 143.8142,33.0541 C129.2753,28.9883 115.8499,34.4935 111.914,36.5316 C107.9778,38.5697 104.4291,41.6096 105.2616,45.7538 C92.2537,51.7015 88.0208,59.6136 92.5621,69.4903 C98.0049,66.6681 100.7262,65.257 100.7262,65.257 C103.7437,63.4497 107.4792,63.3224 110.6126,64.9197 C113.746,66.517 116.213,68.9971 116.1472,73.1187 Z M122.7854,51.327 C122.0685,50.4885 120.5421,50.0577 118.2058,50.0342 C114.6826,50.5906 113.1558,49.6294 113.6261,47.1499 C116.4109,47.8673 119.3487,47.6684 122.4399,46.5535 C124.4202,45.5529 126.2922,45.2544 128.0567,45.6583 C124.9936,46.9333 123.2364,48.8229 122.7854,51.327 L122.7854,51.327 Z" id="Fill-2" fill="#151616"></path>
        </g>
    </g>
</svg>