<svg width="14" height="11" viewBox="0 0 14 11" fill="none" xmlns="http://www.w3.org/2000/svg">
<path d="M1.72336 3.90952C1.34202 3.51003 0.709023 3.49531 0.309524 3.87664C-0.0899739 4.25798 -0.104695 4.89098 0.276644 5.29048L1.72336 3.90952ZM5.2 9L4.47664 9.69048L5.19237 10.4403L5.916 9.6981L5.2 9ZM13.716 1.6981C14.1016 1.30266 14.0935 0.66955 13.6981 0.284C13.3027 -0.10155 12.6695 -0.0935361 12.284 0.3019L13.716 1.6981ZM0.276644 5.29048L4.47664 9.69048L5.92336 8.30952L1.72336 3.90952L0.276644 5.29048ZM5.916 9.6981L13.716 1.6981L12.284 0.3019L4.484 8.3019L5.916 9.6981Z" fill="white"/>
</svg>
