<svg width="104" height="38" viewBox="0 0 104 38" fill="none" xmlns="http://www.w3.org/2000/svg">
<g filter="url(#filter0_b)">
<path fill-rule="evenodd" clip-rule="evenodd" d="M8.37988 0.636292C3.96161 0.636292 0.379883 4.21801 0.379883 8.63629V24.6363C0.379883 29.0546 3.96161 32.6363 8.37988 32.6363H46.723L52.0367 37.95L57.3505 32.6363H95.3799C99.7982 32.6363 103.38 29.0546 103.38 24.6363V8.63629C103.38 4.21801 99.7982 0.636292 95.3799 0.636292H8.37988Z" fill="black" fill-opacity="0.8"/>
</g>
<path d="M20.2399 19.6363H19.2199V12.1963H14.6599V19.6363H13.6399V11.2363H20.2399V19.6363ZM22.6491 15.3763L22.3971 14.6083C22.9331 14.2803 23.5331 14.1163 24.1971 14.1163C24.9251 14.1163 25.4531 14.2963 25.7811 14.6563C26.1091 15.0163 26.2731 15.5723 26.2731 16.3243V19.6363H25.3611V18.9403C24.9371 19.4603 24.3611 19.7203 23.6331 19.7203C23.1371 19.7203 22.7371 19.5723 22.4331 19.2763C22.1291 18.9723 21.9771 18.5643 21.9771 18.0523C21.9771 17.5243 22.1651 17.1083 22.5411 16.8043C22.9171 16.4923 23.4091 16.3363 24.0171 16.3363C24.5851 16.3363 25.0331 16.4523 25.3611 16.6843C25.3611 16.0763 25.2771 15.6403 25.1091 15.3763C24.9411 15.1123 24.6171 14.9803 24.1371 14.9803C23.6491 14.9803 23.1531 15.1123 22.6491 15.3763ZM23.9691 18.8563C24.5051 18.8563 24.9691 18.6243 25.3611 18.1603V17.4763C25.0251 17.2363 24.6211 17.1163 24.1491 17.1163C23.8211 17.1163 23.5451 17.1963 23.3211 17.3563C23.1051 17.5083 22.9971 17.7243 22.9971 18.0043C22.9971 18.2683 23.0811 18.4763 23.2491 18.6283C23.4251 18.7803 23.6651 18.8563 23.9691 18.8563ZM28.8406 22.0363H27.8806V14.2363H28.8406V14.8723C29.0326 14.6483 29.2966 14.4683 29.6326 14.3323C29.9686 14.1883 30.3166 14.1163 30.6766 14.1163C31.4446 14.1163 32.0486 14.3723 32.4886 14.8843C32.9446 15.3883 33.1726 16.0443 33.1726 16.8523C33.1726 17.6763 32.9126 18.3683 32.3926 18.9283C31.8806 19.4803 31.2046 19.7563 30.3646 19.7563C29.7166 19.7563 29.2086 19.6323 28.8406 19.3843V22.0363ZM30.4006 15.0163C29.7606 15.0163 29.2406 15.2643 28.8406 15.7603V18.4363C29.2646 18.7163 29.7446 18.8563 30.2806 18.8563C30.8486 18.8563 31.3006 18.6763 31.6366 18.3163C31.9806 17.9483 32.1526 17.4723 32.1526 16.8883C32.1526 16.3203 31.9966 15.8683 31.6846 15.5323C31.3726 15.1883 30.9446 15.0163 30.4006 15.0163ZM38.0166 14.2363H39.2766L36.9126 16.8163L39.5046 19.6363H38.1726L35.7366 16.8763L38.0166 14.2363ZM35.5086 19.6363H34.5486V14.2363H35.5086V19.6363ZM40.6642 18.9643C40.1362 18.4203 39.8722 17.7443 39.8722 16.9363C39.8722 16.1203 40.1362 15.4483 40.6642 14.9203C41.2002 14.3843 41.8962 14.1163 42.7522 14.1163C43.6082 14.1163 44.3002 14.3843 44.8282 14.9203C45.3642 15.4483 45.6322 16.1203 45.6322 16.9363C45.6322 17.7523 45.3642 18.4283 44.8282 18.9643C44.3002 19.4923 43.6082 19.7563 42.7522 19.7563C41.9042 19.7563 41.2082 19.4923 40.6642 18.9643ZM41.4202 15.5563C41.0682 15.9083 40.8922 16.3683 40.8922 16.9363C40.8922 17.5043 41.0642 17.9643 41.4082 18.3163C41.7602 18.6763 42.2082 18.8563 42.7522 18.8563C43.2962 18.8563 43.7402 18.6803 44.0842 18.3283C44.4362 17.9683 44.6122 17.5043 44.6122 16.9363C44.6122 16.3843 44.4362 15.9243 44.0842 15.5563C43.7402 15.1963 43.2962 15.0163 42.7522 15.0163C42.2082 15.0163 41.7642 15.1963 41.4202 15.5563ZM47.0173 19.6363V14.2363C47.0573 14.2363 47.1133 14.2363 47.1853 14.2363C47.2573 14.2283 47.3613 14.2243 47.4973 14.2243C47.6333 14.2163 47.7573 14.2123 47.8693 14.2123C48.4613 14.1963 48.8293 14.1883 48.9733 14.1883C50.5253 14.1883 51.3013 14.6523 51.3013 15.5803C51.3013 15.9003 51.2013 16.1763 51.0013 16.4083C50.8013 16.6323 50.5413 16.7683 50.2213 16.8163V16.8403C51.0613 16.9923 51.4813 17.4163 51.4813 18.1123C51.4813 19.1603 50.6533 19.6843 48.9973 19.6843C48.9173 19.6843 48.5653 19.6763 47.9413 19.6603C47.8213 19.6603 47.6893 19.6563 47.5453 19.6483C47.4013 19.6483 47.2893 19.6443 47.2093 19.6363C47.1293 19.6363 47.0653 19.6363 47.0173 19.6363ZM49.1293 17.2123H47.9773V18.8683C48.5533 18.8923 48.9213 18.9043 49.0813 18.9043C50.0013 18.9043 50.4613 18.6163 50.4613 18.0403C50.4613 17.4883 50.0173 17.2123 49.1293 17.2123ZM49.0453 14.9683C48.8133 14.9683 48.4573 14.9803 47.9773 15.0043V16.6123H49.1893C49.5173 16.6123 49.7813 16.5363 49.9813 16.3843C50.1813 16.2323 50.2813 16.0283 50.2813 15.7723C50.2813 15.2363 49.8693 14.9683 49.0453 14.9683ZM53.235 15.3763L52.983 14.6083C53.519 14.2803 54.119 14.1163 54.783 14.1163C55.511 14.1163 56.039 14.2963 56.367 14.6563C56.695 15.0163 56.859 15.5723 56.859 16.3243V19.6363H55.947V18.9403C55.523 19.4603 54.947 19.7203 54.219 19.7203C53.723 19.7203 53.323 19.5723 53.019 19.2763C52.715 18.9723 52.563 18.5643 52.563 18.0523C52.563 17.5243 52.751 17.1083 53.127 16.8043C53.503 16.4923 53.995 16.3363 54.603 16.3363C55.171 16.3363 55.619 16.4523 55.947 16.6843C55.947 16.0763 55.863 15.6403 55.695 15.3763C55.527 15.1123 55.203 14.9803 54.723 14.9803C54.235 14.9803 53.739 15.1123 53.235 15.3763ZM54.555 18.8563C55.091 18.8563 55.555 18.6243 55.947 18.1603V17.4763C55.611 17.2363 55.207 17.1163 54.735 17.1163C54.407 17.1163 54.131 17.1963 53.907 17.3563C53.691 17.5083 53.583 17.7243 53.583 18.0043C53.583 18.2683 53.667 18.4763 53.835 18.6283C54.011 18.7803 54.251 18.8563 54.555 18.8563ZM60.8305 14.2363H62.5105V19.6363H61.5505V17.8363H60.5065L59.1865 19.6363H58.0225L59.5825 17.5963C59.2545 17.5243 58.9785 17.3483 58.7545 17.0683C58.5305 16.7803 58.4185 16.4363 58.4185 16.0363C58.4185 15.4843 58.6185 15.0483 59.0185 14.7283C59.4185 14.4003 60.0225 14.2363 60.8305 14.2363ZM59.4385 16.0603C59.4385 16.3163 59.5385 16.5283 59.7385 16.6963C59.9385 16.8563 60.1745 16.9363 60.4465 16.9363H61.5505V15.1363H60.6745C60.2665 15.1363 59.9585 15.2203 59.7505 15.3883C59.5425 15.5563 59.4385 15.7803 59.4385 16.0603ZM68.7389 19.7563C68.3309 19.7563 67.8989 19.6883 67.4429 19.5523C67.0029 19.4083 66.6909 19.2323 66.5069 19.0243L66.9989 18.3043C67.2149 18.4803 67.4709 18.6243 67.7669 18.7363C68.0709 18.8403 68.3469 18.8923 68.5949 18.8923C69.0109 18.8923 69.3509 18.8123 69.6149 18.6523C69.8789 18.4843 70.0109 18.2683 70.0109 18.0043C70.0109 17.7803 69.9149 17.6083 69.7229 17.4883C69.5389 17.3683 69.2829 17.3083 68.9549 17.3083H68.0429V16.5283H68.8949C69.1669 16.5283 69.3909 16.4563 69.5669 16.3123C69.7429 16.1603 69.8309 15.9763 69.8309 15.7603C69.8309 15.5203 69.7269 15.3323 69.5189 15.1963C69.3109 15.0523 69.0309 14.9803 68.6789 14.9803C68.1109 14.9803 67.5709 15.1803 67.0589 15.5803L66.6869 14.8363C66.9029 14.6123 67.2029 14.4363 67.5869 14.3083C67.9789 14.1803 68.3909 14.1163 68.8229 14.1163C69.4629 14.1163 69.9589 14.2443 70.3109 14.5003C70.6709 14.7563 70.8509 15.1123 70.8509 15.5683C70.8509 16.1923 70.5349 16.6163 69.9029 16.8403V16.8643C70.2549 16.9043 70.5309 17.0443 70.7309 17.2843C70.9309 17.5163 71.0309 17.8003 71.0309 18.1363C71.0309 18.6323 70.8189 19.0283 70.3949 19.3243C69.9789 19.6123 69.4269 19.7563 68.7389 19.7563ZM72.9259 18.9643C72.3979 18.4203 72.1339 17.7443 72.1339 16.9363C72.1339 16.1203 72.3979 15.4483 72.9259 14.9203C73.4619 14.3843 74.1579 14.1163 75.0139 14.1163C75.8699 14.1163 76.5619 14.3843 77.0899 14.9203C77.6259 15.4483 77.8939 16.1203 77.8939 16.9363C77.8939 17.7523 77.6259 18.4283 77.0899 18.9643C76.5619 19.4923 75.8699 19.7563 75.0139 19.7563C74.1659 19.7563 73.4699 19.4923 72.9259 18.9643ZM73.6819 15.5563C73.3299 15.9083 73.1539 16.3683 73.1539 16.9363C73.1539 17.5043 73.3259 17.9643 73.6699 18.3163C74.0219 18.6763 74.4699 18.8563 75.0139 18.8563C75.5579 18.8563 76.0019 18.6803 76.3459 18.3283C76.6979 17.9683 76.8739 17.5043 76.8739 16.9363C76.8739 16.3843 76.6979 15.9243 76.3459 15.5563C76.0019 15.1963 75.5579 15.0163 75.0139 15.0163C74.4699 15.0163 74.0259 15.1963 73.6819 15.5563ZM84.199 19.6363H83.239V17.3563H80.239V19.6363H79.279V14.2363H80.239V16.4563H83.239V14.2363H84.199V19.6363ZM86.2233 15.3763L85.9713 14.6083C86.5073 14.2803 87.1073 14.1163 87.7713 14.1163C88.4993 14.1163 89.0273 14.2963 89.3553 14.6563C89.6833 15.0163 89.8473 15.5723 89.8473 16.3243V19.6363H88.9353V18.9403C88.5113 19.4603 87.9353 19.7203 87.2073 19.7203C86.7113 19.7203 86.3113 19.5723 86.0073 19.2763C85.7033 18.9723 85.5513 18.5643 85.5513 18.0523C85.5513 17.5243 85.7393 17.1083 86.1153 16.8043C86.4913 16.4923 86.9833 16.3363 87.5913 16.3363C88.1593 16.3363 88.6073 16.4523 88.9353 16.6843C88.9353 16.0763 88.8513 15.6403 88.6833 15.3763C88.5153 15.1123 88.1913 14.9803 87.7113 14.9803C87.2233 14.9803 86.7273 15.1123 86.2233 15.3763ZM87.5433 18.8563C88.0793 18.8563 88.5433 18.6243 88.9353 18.1603V17.4763C88.5993 17.2363 88.1953 17.1163 87.7233 17.1163C87.3953 17.1163 87.1193 17.1963 86.8953 17.3563C86.6793 17.5083 86.5713 17.7243 86.5713 18.0043C86.5713 18.2683 86.6553 18.4763 86.8233 18.6283C86.9993 18.7803 87.2393 18.8563 87.5433 18.8563Z" fill="white"/>
<defs>
<filter id="filter0_b" x="-3.62012" y="-3.36371" width="111" height="45.3137" filterUnits="userSpaceOnUse" color-interpolation-filters="sRGB">
<feFlood flood-opacity="0" result="BackgroundImageFix"/>
<feGaussianBlur in="BackgroundImage" stdDeviation="2"/>
<feComposite in2="SourceAlpha" operator="in" result="effect1_backgroundBlur"/>
<feBlend mode="normal" in="SourceGraphic" in2="effect1_backgroundBlur" result="shape"/>
</filter>
</defs>
</svg>
