<svg width="24" height="24" viewBox="0 0 24 24" fill="none" xmlns="http://www.w3.org/2000/svg">
<path fill-rule="evenodd" clip-rule="evenodd" d="M20 18.4914V6.65146L16 7.79432L16 19.6343L20 18.4914ZM14 18.9296L13.1094 18.3359L10.4942 16.5924C10.3368 16.4875 10.1713 16.3986 10 16.3261V5.07037L10.8906 5.6641L13.5058 7.40759C13.6632 7.51247 13.8287 7.60138 14 7.67394L14 18.9296ZM8 16.2057V4.36575L4 5.5086V17.3485L8 16.2057ZM3.45056 3.58556C2.59195 3.83087 2 4.61564 2 5.5086V17.3485C2 18.6773 3.27181 19.6366 4.54944 19.2716L8.55535 18.127C8.83743 18.0464 9.14068 18.0938 9.38477 18.2565L12 20L14.6152 21.7435C14.8593 21.9062 15.1626 21.9536 15.4446 21.873L20.5494 20.4144C21.408 20.1691 22 19.3844 22 18.4914V6.65146C22 5.3227 20.7282 4.36338 19.4506 4.72841L15.4446 5.87296C15.1626 5.95355 14.8593 5.90622 14.6152 5.74349L12 4L9.38477 2.25652C9.14068 2.09379 8.83743 2.04645 8.55535 2.12704L3.45056 3.58556Z" fill="white"/>
</svg>
