<svg width="48" height="48" viewBox="0 0 48 48" fill="none" xmlns="http://www.w3.org/2000/svg">
<path fill-rule="evenodd" clip-rule="evenodd" d="M17.2925 25.4461L12.3768 23.5945C11.8775 23.4057 11.8732 22.6992 12.3711 22.5081L32.545 14.7598C32.9726 14.5951 33.414 14.9718 33.3208 15.4217L29.7005 32.8669C29.6151 33.2788 29.1331 33.4645 28.7928 33.2157L23.8507 29.6066C23.5505 29.3875 23.1414 29.3981 22.8542 29.6319L20.1142 31.8637C19.7961 32.1236 19.3169 31.9771 19.1951 31.584L17.2925 25.4461ZM28.4959 18.5595L18.8889 24.4687C18.5207 24.6957 18.3473 25.1412 18.4663 25.559L19.505 29.222C19.5787 29.4816 19.9541 29.456 19.9899 29.188L20.26 27.1815C20.3109 26.8037 20.4907 26.456 20.7693 26.1965L28.6979 18.8257C28.8462 18.6882 28.6686 18.4536 28.4959 18.5595Z" fill="white"/>
<circle cx="24" cy="24" r="23" stroke="#333333" stroke-opacity="0.1" stroke-width="2"/>
</svg>
