<svg width="48" height="48" viewBox="0 0 48 48" fill="none" xmlns="http://www.w3.org/2000/svg">
<path d="M34.6667 23.7252C34.6667 29.4646 29.9783 34.1171 24.1939 34.1171C22.3576 34.1171 20.6324 33.6478 19.1315 32.8241L13.3333 34.6666L15.2237 29.091C14.2701 27.5251 13.7209 25.6886 13.7209 23.7252C13.7209 17.9858 18.4097 13.3333 24.1939 13.3333C29.9788 13.3333 34.6667 17.9858 34.6667 23.7252ZM24.1939 14.9882C19.3384 14.9882 15.3889 18.9077 15.3889 23.7252C15.3889 25.6369 16.0121 27.4073 17.0662 28.8476L15.9661 32.0924L19.3498 31.0169C20.74 31.9298 22.4055 32.4621 24.1941 32.4621C29.0489 32.4621 32.9991 28.5432 32.9991 23.7257C32.9991 18.9081 29.0491 14.9882 24.1939 14.9882ZM29.4824 26.1186C29.4177 26.0126 29.2468 25.9486 28.9904 25.8213C28.7334 25.694 27.4709 25.0775 27.2363 24.9929C27.0009 24.908 26.8293 24.8653 26.6584 25.1202C26.4875 25.3752 25.9954 25.9486 25.8453 26.1186C25.6955 26.289 25.546 26.3103 25.289 26.1828C25.0325 26.0555 24.2055 25.7862 23.2249 24.9187C22.4619 24.2436 21.9466 23.4102 21.7968 23.1549C21.6472 22.9001 21.7811 22.7623 21.9093 22.6355C22.025 22.5213 22.1663 22.3381 22.2945 22.1894C22.4232 22.0406 22.4659 21.9346 22.551 21.7644C22.637 21.5945 22.5941 21.4458 22.5297 21.3181C22.4657 21.1908 21.9518 19.9373 21.738 19.4272C21.5242 18.9176 21.3106 19.0025 21.1605 19.0025C21.011 19.0025 20.8396 18.9811 20.6685 18.9811C20.4973 18.9811 20.219 19.0449 19.9837 19.2997C19.7485 19.5548 19.0855 20.1711 19.0855 21.4243C19.0855 22.6777 20.005 23.8887 20.1337 24.0585C20.2619 24.2282 21.9091 26.8839 24.5189 27.9039C27.1289 28.9234 27.1289 28.5833 27.5997 28.5406C28.0699 28.4982 29.1181 27.9245 29.3329 27.3301C29.5462 26.7346 29.5462 26.2247 29.4824 26.1186Z" fill="#333333"/>
<circle cx="24" cy="24" r="23" stroke="#333333" stroke-opacity="0.1" stroke-width="2"/>
</svg>
