<svg id="Layer_1" data-name="Layer 1" xmlns="http://www.w3.org/2000/svg" xmlns:xlink="http://www.w3.org/1999/xlink" viewBox="0 0 1000 1000"><defs><style>.cls-1{fill:none;}.cls-2{fill:#fff;}.cls-3{clip-path:url(#clip-path);}.cls-4{clip-path:url(#clip-path-2);}.cls-5{clip-path:url(#clip-path-3);}.cls-6{fill:#1d4c46;stroke:#000;stroke-miterlimit:10;}.cls-7{clip-path:url(#clip-path-4);}.cls-8{clip-path:url(#clip-path-5);}</style><clipPath id="clip-path"><path class="cls-1" d="M430.43,394.86l-7.68-8.53L415.21,378h0l-9.15-10.18-114,126.89v72.59h228V494.67Zm1.65,145.54h-56V491.59h56Z"/></clipPath><clipPath id="clip-path-2"><polygon class="cls-1" points="406.1 367.78 292.09 494.68 292.09 567.26 520.11 567.26 520.11 494.68 430.44 394.86 422.75 386.33 415.21 377.96 415.25 377.96 406.1 367.78"/></clipPath><clipPath id="clip-path-3"><polygon class="cls-1" points="597.94 382.93 439.94 382.93 406.1 345.37 278.37 487.19 277.09 488.61 277.09 576.78 689.06 576.78 689.06 509.52 711.94 509.52 597.94 382.93"/></clipPath><clipPath id="clip-path-4"><path class="cls-1" d="M540.72,509.62l-5.61-6.32v64.54H679.06V509.62Zm54.39,41.28h-25v-28h25Zm48.93,0H619v-28h25Z"/></clipPath><clipPath id="clip-path-5"><polygon class="cls-1" points="540.72 514.52 540.11 514.52 540.11 566.78 674.06 566.78 674.06 514.52 540.72 514.52"/></clipPath></defs><title>logoFinal</title><path class="cls-2" d="M212.3,706.72q13.19-18.42,13.19-28.91,0-7.41-7-11.56c-3.5-2-8.13-3.08-13.92-3.08a155.66,155.66,0,0,0-33.25,3.8q-32.7,7-52.76,16.26-14.82,6.69-14.82,12.47,0,3.07,4,5.78c.73.61.61.91-.36.91a3.54,3.54,0,0,1-2.17-.55c-3.61-2.4-5.42-5.54-5.42-9.39A22.38,22.38,0,0,1,103.07,681q3.33-5.69,10.93-9.85,17.34-9.93,41.56-16.08,26-6.67,48.61-6.68,23.85,0,30.72,8.85,4.52,5.61,4.52,11.11a29.18,29.18,0,0,1-2.17,10.94,72.88,72.88,0,0,1-12.83,21.68l-6.69,7.95a20.42,20.42,0,0,1,4.88,3.62c1.21,1.44,1.51,2.62.91,3.52s-1.69.84-3.26-.18a27.49,27.49,0,0,0-6-2.8q-24.94,29.82-28.19,34.24c-2.17,3-3.92,5.3-5.24,7.05s-2.2,2.92-2.62,3.52L176,761.12a24.53,24.53,0,0,0-2.26,3.79c-.42,1-.93,2.17-1.53,3.61a22.1,22.1,0,0,0-1.45,8.59q0,5.14,4.34,5.15a11,11,0,0,0,2.89-.45q1.62-.46,1.62.45t-2.07,1.53a15.53,15.53,0,0,1-4.52.64,7.43,7.43,0,0,1-4.88-2.17q-2.44-2.18-2.44-6.69t3.25-10.48A143.7,143.7,0,0,1,178.87,750q6.69-9.12,16.54-21.5t13.1-16.72a116.7,116.7,0,0,0-12.92-.54q-8.4,0-23,3.07-2.18.38-5.69,1.36T161.7,717q-6.67,1.46-7.77-.18c-1.68-1-2.52-2.1-2.52-3.43s1.14-2.92,3.43-4.79,6-3.28,11-4.25a84.17,84.17,0,0,1,15.72-1.44Q199.83,702.93,212.3,706.72Z"/><path class="cls-2" d="M250.79,765.09q-12.1,6.15-21.14,6.15-7.59,0-10.3-5.06a11.52,11.52,0,0,1-1.45-5.79,32.6,32.6,0,0,1,3.44-14.45,30.78,30.78,0,0,1-4.52,3.79c-1.2,1.09-1.81,1-1.81-.36,0-.84,1.06-2.17,3.16-4s5.33-4.84,9.67-9.12,7.77-7.5,10.3-9.67q11-9.21,23.31-9.22a20.64,20.64,0,0,1,9.22,2.35q6.87,3.25,6.87,11.93,0,10.49-10.48,21.5a54,54,0,0,1-11.57,9.4q14.82-2.34,31.44-17.89a2.26,2.26,0,0,1,1.63-.63.73.73,0,0,1,.72.81,2.09,2.09,0,0,1-.72,1.45q-19.87,18.8-37.05,18.79Zm17.53-19q4.51-6.87,4.52-11.66a10.32,10.32,0,0,0-9.58-9.3q-11,0-20.33,8.67t-12.38,18.43a20.57,20.57,0,0,0-1.26,7.14,5.47,5.47,0,0,0,2.8,5.24,12.76,12.76,0,0,0,6.23,1.54q3.44,0,9.94-3.44a2.76,2.76,0,0,1-1.08-.36c-1.45-.72-2.17-1.68-2.17-2.89q0-6.33,7.05-12.83,5.06-4.51,10.3-4.52T268.32,746.12Z"/><path class="cls-2" d="M334.64,732a156,156,0,0,0-12.92,16.9q-5,7.68-5,10.84t3.7,3.16q3.71,0,15.18-7.41a146.13,146.13,0,0,0,21.23-16.62c.61-.6,1.15-.84,1.63-.72a.85.85,0,0,1,.72.9,2.77,2.77,0,0,1-.72,1.63q-23.31,21.31-35.6,26.74c-3.61,1.45-6.21,2.17-7.77,2.17q-8.67,0-11.84-2.89a8.5,8.5,0,0,1-3.16-6.33q0-6.85,2.71-10.48,8.85-12.46,14.1-21.14,1.62-2.53-.63-3.52a13.84,13.84,0,0,0-5.61-1,14.62,14.62,0,0,1-3.52-.18q-12.1,16.26-24,25.66c-1,.85-1.51.85-1.63,0s.66-2.11,2-3.43a114.7,114.7,0,0,0,20.78-22.95,3.4,3.4,0,0,1-1.63-3c0-1.27.09-2.8.27-4.61a20.41,20.41,0,0,1,2.8-7.23c2.9-5.06,5.9-7.59,9-7.59q4,0,4,4.34,0,6-5.61,13a22.09,22.09,0,0,1-5.06,4.7q6.69-2.18,19.52-2.17,6.33,0,9,4.7a5,5,0,0,1,.37,2.16C337,728.65,336.2,730.1,334.64,732Z"/><path class="cls-2" d="M390.83,740q9.59-5.24,9.58-10.66t-6.5-5.42a15.17,15.17,0,0,0-6.51,1.63q-7.59,3.43-14.64,11.92-8.67,10.48-8.67,19.52a11.65,11.65,0,0,0,1.9,6.41q1.89,3,6.77,3,8.49,0,21.51-9a176.67,176.67,0,0,0,22.41-18q2.16-2.16,2.16-.18a2.74,2.74,0,0,1-1.08,2.17l-8.94,8.22q-2.26,2.08-8.95,7.41a74.19,74.19,0,0,1-10.84,7.5q-12.84,6.68-21.78,6.69t-14.09-4.07Q348,763.11,348,755.88q0-15.36,13.73-26.48t28.73-11.11q10.13,0,13.56,4.33a8.22,8.22,0,0,1,1.44,4.61,11,11,0,0,1-1.62,5.33q-3.25,5.61-12.2,9.85a39.57,39.57,0,0,1-16.9,4.25c-2.05,0-3.16-.18-3.34-.54s0-.64.45-.82a5.84,5.84,0,0,1,2-.27Q381.07,745,390.83,740Z"/><path class="cls-2" d="M398.6,758.22a.76.76,0,0,1-.18-.54c0-.24.22-.36.64-.36a.8.8,0,0,1,.81.72q3.25,7.23,10.66,7.23,9.21,0,16.08-9a103.46,103.46,0,0,0,8.95-14q3.88-7.32,6.5-11.65a52,52,0,0,1,8.14-9.76c3.67-3.62,7-5.84,10-6.69a8.68,8.68,0,0,0-3.61-.54q-2.53,0-9.49,3.7a82.89,82.89,0,0,0-13.82,9.4q-6.87,5.7-14.82,12.92t-9.58,8.49q-1.62,1.27-2,0a2.18,2.18,0,0,1,.9-2.34q4.69-4,13.55-12.38t13.46-12.29a49.79,49.79,0,0,1,10.4-6.69c3.85-1.86,6.74-2.8,8.67-2.8,4.82,0,7.77.85,8.85,2.53q-4.69,2-7.68,10.48t-6.68,19.7q-3.7,11.21-9.31,17.53,4.69-1.8,14.55-8.4a109.64,109.64,0,0,0,17.44-14.37c1.08-1,1.86-1.08,2.35-.36v.81q0,.45-3.44,3.89t-8.4,7.68q-5,4.24-12.38,9.48-15.36,10.84-30.81,10.85T398.6,758.22Z"/><path class="cls-2" d="M495.46,706.18q4-6,6.42-9.49a56.49,56.49,0,0,1,3.88-5.15q1.44-1.62,6.51-2.8a43.23,43.23,0,0,1,9.76-1.17c3.13,0,4.69.33,4.69,1S524.13,692,519,697a249.86,249.86,0,0,0-18.07,19.7q12.28,2,16.08,7.77c1,1.69,1.12,2.78.46,3.25s-1.42.31-2.26-.54q-3.79-3.79-12.11-3.79a52.12,52.12,0,0,0-8.13.72q-14.64,18.79-18.43,30.72a17.24,17.24,0,0,0-1.27,5.78q0,6.33,5.24,6.33,5.61,0,15.72-7.77a216.54,216.54,0,0,0,22.95-19.7c1.21-1.32,2-1.63,2.35-.9s.06,1.51-.9,2.35Q505,757.14,494.47,764.82T475,772.5q-12.1,0-12.11-12.83,0-6.13,3.44-14.64l-3.26,3.07c-1,1-1.65,1.24-2.07.82a1.79,1.79,0,0,1-.64-1.18c0-.36.49-1,1.45-1.8q13.18-11.57,18.07-17.53-3.44,1.26-4.61.18a5.71,5.71,0,0,1-1.62-2.89c-.31-1.21.3-2.68,1.8-4.43a13,13,0,0,1,6.69-3.79,41.68,41.68,0,0,1,6.59-1.36Q491.49,712.15,495.46,706.18Z"/><path class="cls-2" d="M555.63,772.5q0-6.69,19.52-36.86a32.09,32.09,0,0,1-11.93-5.43q-5.41-4.34-5.42-9c0-3.13.82-5.45,2.44-7s2.44-1.77,2.44-.81a4.39,4.39,0,0,1-1.08,2.17,5,5,0,0,0-1.09,3.07,11.57,11.57,0,0,0,4.7,9.49A24.71,24.71,0,0,0,577,732.93q14.09-21,28.37-39.49T622,674.92a2.28,2.28,0,0,1,1.9,1.26,4.69,4.69,0,0,1,.81,2.53q-22.77,28.2-41.38,55.12c1.21.12,2.47.18,3.8.18q16.08,0,38.22-7.32t33.43-15Q670,704,675.44,696.15t5.42-14.54a18.42,18.42,0,0,0-4.24-11.93,21.41,21.41,0,0,0-11.75-7.14,54.7,54.7,0,0,0-13.1-1.9q-19.51,0-44.36,8T573.7,684c-2,1.57-2.77,2.87-2.16,3.89s.72,1.6.36,1.72-.85-.06-1.45-.55a10,10,0,0,1-4.88-5.51,18.11,18.11,0,0,1-1.08-4.88,3.32,3.32,0,0,1,.9-2.44q6.69-9.57,31.17-17.71A222.78,222.78,0,0,1,645.26,648c2.77-.24,6.24-.36,10.39-.36A55.71,55.71,0,0,1,670.29,650a26.62,26.62,0,0,1,13.28,7.95,24.29,24.29,0,0,1,6.15,16.81q0,13.54-11.93,27.1a68.72,68.72,0,0,1-16.62,13.56q-15.18,8.67-36.42,15.18t-36.23,6.5q-3.79,0-7.41-.36Q565,759.85,560.69,771.24c-.72,1.92-1.74,2.89-3.07,2.89S555.63,773.58,555.63,772.5Z"/><path class="cls-2" d="M720.8,740.33q-2,2.35-4.07,5.06t-5.24,7.41q-3.16,4.71-3.16,8t2.8,3.26c1.86,0,4.91-1.15,9.12-3.44q12.66-7.22,28-21.68c1.21-1.2,2-1.39,2.35-.54v.72a2,2,0,0,1-.72,1.26q-31.08,29.28-45.18,29.28a9.45,9.45,0,0,1-7-2.8,9,9,0,0,1-2.8-6.6q0-3.8,3.25-11.56a65.52,65.52,0,0,1-17.44,15.63q-9.32,5.51-14.55,5.51a13.35,13.35,0,0,1-8.94-3.16,9.93,9.93,0,0,1-3.71-7.86q0-13.38,11.93-26.21A49.59,49.59,0,0,1,687.91,719a36.85,36.85,0,0,1,11.65-2,21.35,21.35,0,0,1,11,3.17q5.32,3.15,6.77,7.49,5.43,0,7.77,4a3.41,3.41,0,0,1,.36,1.81,4.82,4.82,0,0,1-1.35,2.89C723.24,737.44,722.12,738.77,720.8,740.33Zm-13.19-17.89a22.87,22.87,0,0,0-9,2.35q-9.21,4-17.53,13.74-13.18,15.54-13.19,22.77,0,3.8,3.07,3.79,2.54,0,8.4-3.25T694.78,749q.54-.54,4.15-4t6.14-6q8.5-8.85,8.5-12.74T707.61,722.44Z"/><path class="cls-2" d="M789.83,732a156,156,0,0,0-12.92,16.9q-5,7.68-5,10.84t3.7,3.16q3.71,0,15.18-7.41a146.13,146.13,0,0,0,21.23-16.62c.6-.6,1.15-.84,1.63-.72a.85.85,0,0,1,.72.9,2.77,2.77,0,0,1-.72,1.63q-23.31,21.31-35.6,26.74c-3.61,1.45-6.21,2.17-7.77,2.17q-8.67,0-11.84-2.89a8.5,8.5,0,0,1-3.16-6.33q0-6.85,2.71-10.48,8.85-12.46,14.1-21.14,1.62-2.53-.64-3.52a13.75,13.75,0,0,0-5.6-1,14.62,14.62,0,0,1-3.52-.18q-12.11,16.26-24,25.66-1.44,1.28-1.62,0c0-1,.66-2.11,2-3.43a114.7,114.7,0,0,0,20.78-22.95,3.4,3.4,0,0,1-1.63-3c0-1.27.09-2.8.27-4.61a20.22,20.22,0,0,1,2.8-7.23q4.33-7.59,9-7.59,4,0,4,4.34,0,6-5.6,13a22.09,22.09,0,0,1-5.06,4.7q6.69-2.18,19.52-2.17c4.21,0,7.23,1.56,9,4.7a5,5,0,0,1,.36,2.16Q792.17,729.14,789.83,732Z"/><path class="cls-2" d="M813.5,751.72q-4.89,11.92-4.88,20.06T811,782.62q.54.72.18,1a1.13,1.13,0,0,1-.54.27,1.37,1.37,0,0,1-.55-.18q-5.77-4.87-6.5-10.66a24.39,24.39,0,0,1-.36-4.33q0-10.49,6.14-25.85-9,9-9.4,6.87c.13-1.08,1-2.32,2.53-3.7s5.12-5.45,10.67-12.2q18.06-40.12,47.34-67,15.18-14.1,27.47-14.1,10.11,0,11.74,8.31a9.91,9.91,0,0,1,.37,2.71q0,15.38-30.73,36.15a118.86,118.86,0,0,1-19.51,11c-1.45.6-2.29.51-2.53-.27s.36-1.48,1.81-2.08a119.07,119.07,0,0,0,19-11.38,131.92,131.92,0,0,0,19.16-16.54q8.49-8.94,8.49-13.82,0-3.07-3.44-3.08t-9.93,4q-18.08,11-39.58,38.67a335.94,335.94,0,0,0-22,31.44q12.64-16.8,26-22.22a26.33,26.33,0,0,1,8.49-1.81,15.07,15.07,0,0,1,6,1.08q4.89,2.17,4.88,7.23,0,9-10.66,17a40.44,40.44,0,0,1-14,6.23,55.3,55.3,0,0,1-11.84,1.9,18.17,18.17,0,0,1-6.69-1.08A52.28,52.28,0,0,0,838,759q9.32,5.41,15.09,5.42a9,9,0,0,0,6-1.81c1.45-1.2,2.17-2.2,2.17-3s.15-1.17.46-1.17.45.12.45.36q0,6.32-9.58,8.67a46.57,46.57,0,0,1-10,.9q-6.06,0-13.64-3.79Q817.3,759.12,813.5,751.72Zm39.93-24.22q0-6.32-6-6.32-6.87,0-15.27,7.59a123.35,123.35,0,0,0-12.38,12.47,20.44,20.44,0,0,0,1.45,2.71,9.69,9.69,0,0,0,5,1.26,40.25,40.25,0,0,0,9.12-1.71,35.83,35.83,0,0,0,12.2-6.15Q853.43,732.93,853.43,727.5Z"/><rect class="cls-2" x="384.04" y="514.34" width="45" height="5" transform="translate(923.38 110.29) rotate(90)"/><rect class="cls-2" x="383.56" y="514.34" width="45.98" height="5"/><path class="cls-2" d="M711.94,509.52l-114-126.59h-158L406.1,345.37l-129,143.24v91.17h412V509.52ZM525.11,569.78h-238V492.45l119-132.14,20.38,22.62h0l7.69,8.52,91,101Zm153.95,0H535.11V503.3l5.61,6.22H679.06Z"/><rect class="cls-2" x="528.47" y="369.34" width="40" height="30.14"/><rect class="cls-2" x="528.47" y="359.34" width="40" height="5"/><path class="cls-2" d="M768.76,196.89A32.29,32.29,0,0,0,758,189,51.48,51.48,0,0,0,745.61,185c-19.36-3.68-37.15,2.64-53.82,12-4.57,2.58-9.08,5.24-13.62,7.86-4.22,2.43-8,5.66-12.58,7.51-4.69,1.92-10.12,2.45-15.14,2.73-11.08.62-22.28-1.64-33-4.32-6-1.49-11.87-3.1-17.85-4.48-20.5-4.73-47.24-8-65.44,5.42-3.83,2.83-8.15,7.66-9.62,12.29-3.56,11.22,4.92,18.43,10.73,26.62s6.3,15.2-3.81,20.37c-13.36,6.84-34.09,13.22-36.8,30.69-.77,4.93,1.21,12.33,4.55,16.13,6.51,7.39,16.16,10.87,25.39,13.6,4.7,1.39,9.09,3.34,13.67,5,6.94,2.54,10.78,10.65,9.63,17.84h8.25c2.43-2.74,5-5.56,4.69-9.35-.73-9.76-12.91-14.07-13.57-23.8-.64-9.56,11.13-12,18.24-12.93,6.57-.83,16-1.54,17.67-9.49,2.13-10-11.54-11.3-16.51-16.53-3.46-3.64-1-7.82,2.59-10.53a28.69,28.69,0,0,1,11.62-4.87c10.44-2.17,21.16,1.88,30.94,5.13,10.36,3.45,20.83,6.82,31.87,6.55,7.26-.18,14.65-2,20.32-6.72,6.85-5.71,7.46-13.48,11.17-21,7.55-15.34,28.68-12.6,42.52-10.67,10.93,1.53,22.07,3.45,33.08,1.62a31.5,31.5,0,0,0,21.78-13.95C779.24,217.5,776.54,205.91,768.76,196.89Z"/><g class="cls-3"><g class="cls-4"><g class="cls-5"><rect class="cls-2" x="276.96" y="354.34" width="411.66" height="5"/><rect class="cls-2" x="276.96" y="364.34" width="411.66" height="5"/><rect class="cls-2" x="276.96" y="374.34" width="411.66" height="5"/><rect class="cls-2" x="276.96" y="384.34" width="411.66" height="5"/><rect class="cls-2" x="276.96" y="394.34" width="411.66" height="5"/><rect class="cls-2" x="276.96" y="404.34" width="411.66" height="5"/><rect class="cls-2" x="276.96" y="414.34" width="411.66" height="5"/><rect class="cls-2" x="276.96" y="424.34" width="411.66" height="5"/><rect class="cls-2" x="276.96" y="434.34" width="411.66" height="5"/><rect class="cls-2" x="276.96" y="444.34" width="411.66" height="5"/><rect class="cls-2" x="276.96" y="454.34" width="411.66" height="5"/><rect class="cls-2" x="276.96" y="464.34" width="411.66" height="5"/><rect class="cls-2" x="276.96" y="474.34" width="411.66" height="5"/><rect class="cls-2" x="276.96" y="484.34" width="411.66" height="5"/><rect class="cls-2" x="276.96" y="494.34" width="411.66" height="5"/><rect class="cls-2" x="276.96" y="504.34" width="411.66" height="5"/><rect class="cls-2" x="276.96" y="514.34" width="411.66" height="5"/><rect class="cls-2" x="276.96" y="524.34" width="411.66" height="5"/><rect class="cls-2" x="276.96" y="534.34" width="411.66" height="5"/><rect class="cls-2" x="276.96" y="544.34" width="411.66" height="5"/><rect class="cls-2" x="276.96" y="554.34" width="411.66" height="5"/><rect class="cls-2" x="276.96" y="564.34" width="411.66" height="5"/><rect class="cls-2" x="276.96" y="574.34" width="411.66" height="5"/><path class="cls-6" d="M540.72,509.52l-5.61-6.22v63.48H679.06V509.52Zm133.34,52.26"/></g></g></g><g class="cls-7"><g class="cls-8"><g class="cls-5"><rect class="cls-2" x="276.96" y="354.34" width="411.66" height="5"/><rect class="cls-2" x="276.96" y="364.34" width="411.66" height="5"/><rect class="cls-2" x="276.96" y="374.34" width="411.66" height="5"/><rect class="cls-2" x="276.96" y="384.34" width="411.66" height="5"/><rect class="cls-2" x="276.96" y="394.34" width="411.66" height="5"/><rect class="cls-2" x="276.96" y="404.34" width="411.66" height="5"/><rect class="cls-2" x="276.96" y="414.34" width="411.66" height="5"/><rect class="cls-2" x="276.96" y="424.34" width="411.66" height="5"/><rect class="cls-2" x="276.96" y="434.34" width="411.66" height="5"/><rect class="cls-2" x="276.96" y="444.34" width="411.66" height="5"/><rect class="cls-2" x="276.96" y="454.34" width="411.66" height="5"/><rect class="cls-2" x="276.96" y="464.34" width="411.66" height="5"/><rect class="cls-2" x="276.96" y="474.34" width="411.66" height="5"/><rect class="cls-2" x="276.96" y="484.34" width="411.66" height="5"/><rect class="cls-2" x="276.96" y="494.34" width="411.66" height="5"/><rect class="cls-2" x="276.96" y="504.34" width="411.66" height="5"/><rect class="cls-2" x="276.96" y="514.34" width="411.66" height="5"/><rect class="cls-2" x="276.96" y="524.34" width="411.66" height="5"/><rect class="cls-2" x="276.96" y="534.34" width="411.66" height="5"/><rect class="cls-2" x="276.96" y="544.34" width="411.66" height="5"/><rect class="cls-2" x="276.96" y="554.34" width="411.66" height="5"/><rect class="cls-2" x="276.96" y="564.34" width="411.66" height="5"/><rect class="cls-2" x="276.96" y="574.34" width="411.66" height="5"/></g></g></g><rect class="cls-2" x="384.04" y="514.34" width="45" height="5" transform="translate(923.38 110.29) rotate(90)"/><rect class="cls-2" x="383.56" y="514.34" width="45.98" height="5"/></svg>