<svg id="Layer_1" data-name="Layer 1" xmlns="http://www.w3.org/2000/svg" xmlns:xlink="http://www.w3.org/1999/xlink" viewBox="0 0 1000 1000"><defs><style>.cls-1{fill:none;}.cls-2{font-size:110.59px;font-family:CirceSlabC-Bold, Circe Slab C;font-weight:700;letter-spacing:-0.01em;}.cls-2,.cls-3,.cls-9{fill:#fff;}.cls-3{font-size:44.71px;font-family:Circe-Regular, Circe;letter-spacing:0.06em;}.cls-4{letter-spacing:0.07em;}.cls-5{letter-spacing:0.1em;}.cls-6{letter-spacing:0.09em;}.cls-7{letter-spacing:0.1em;}.cls-8{clip-path:url(#clip-path);}.cls-10{clip-path:url(#clip-path-2);}.cls-11{clip-path:url(#clip-path-3);}.cls-12{clip-path:url(#clip-path-4);}.cls-13{fill:#1d4c46;stroke:#000;stroke-miterlimit:10;}.cls-14{clip-path:url(#clip-path-5);}.cls-15{clip-path:url(#clip-path-6);}</style><clipPath id="clip-path"><rect class="cls-1" x="273.24" y="190.12" width="505.58" height="383.29"/></clipPath><clipPath id="clip-path-2"><path class="cls-1" d="M432.9,401l-7.69-8.54-7.54-8.37h0l-9.15-10.18-114,126.9v72.58h228V500.83ZM431,546.62H385.93V499.21H431Z"/></clipPath><clipPath id="clip-path-3"><polygon class="cls-1" points="408.56 373.94 294.55 500.83 294.55 573.41 522.58 573.41 522.58 500.83 432.9 401.02 425.21 392.48 417.68 384.11 417.71 384.11 408.56 373.94"/></clipPath><clipPath id="clip-path-4"><polygon class="cls-1" points="600.4 389.09 442.4 389.09 408.56 351.52 280.84 493.34 279.55 494.77 279.55 582.94 691.52 582.94 691.52 515.67 714.4 515.67 600.4 389.09"/></clipPath><clipPath id="clip-path-5"><path class="cls-1" d="M543.18,515.78l-5.6-6.32V574H681.52V515.78Zm54.4,41.28h-25v-28h25Zm48.92,0h-25v-28h25Z"/></clipPath><clipPath id="clip-path-6"><polygon class="cls-1" points="543.18 520.67 542.58 520.67 542.58 572.94 676.52 572.94 676.52 520.67 543.18 520.67"/></clipPath></defs><title>logoFinal</title><text class="cls-2" transform="translate(100.05 709.86)">Лесная Сказка</text><text class="cls-3" transform="translate(183.21 809.06)">К<tspan class="cls-4" x="31.79" y="0">О</tspan><tspan class="cls-5" x="71.18" y="0">ТЕ</tspan><tspan class="cls-6" x="132.43" y="0">Д</tspan><tspan class="cls-7" x="169.99" y="0">ЖНЫЙ ПОСЕЛОК</tspan></text><g class="cls-8"><path class="cls-9" d="M714.4,515.67l-114-126.58h-158l-33.84-37.57-129,143.25v91.17h412V515.67ZM527.58,575.94h-238V498.61l119-132.15,20.38,22.63h0l7.69,8.52,91,101Zm153.94,0H537.58V509.46l5.6,6.21H681.52Z"/><rect class="cls-9" x="530.93" y="375.49" width="40" height="30.14"/><rect class="cls-9" x="530.93" y="365.49" width="40" height="5"/><path class="cls-9" d="M771.22,203.05a32.25,32.25,0,0,0-10.74-7.94,51.38,51.38,0,0,0-12.4-3.92c-19.37-3.68-37.16,2.63-53.83,12-4.57,2.57-9.08,5.24-13.62,7.86-4.22,2.42-8,5.65-12.58,7.51s-10.12,2.44-15.14,2.72c-11.08.62-22.28-1.64-33-4.31-6-1.49-11.88-3.1-17.86-4.48-20.5-4.74-47.24-8-65.44,5.42-3.83,2.82-8.15,7.65-9.62,12.29-3.55,11.21,4.92,18.42,10.73,26.62s6.3,15.2-3.81,20.37c-13.35,6.83-34.09,13.21-36.8,30.68-.76,4.93,1.22,12.34,4.56,16.14,6.5,7.38,16.16,10.87,25.38,13.6,4.7,1.39,9.09,3.34,13.67,5,6.94,2.54,10.79,10.66,9.63,17.84h8.26c2.43-2.73,5-5.55,4.68-9.34-.72-9.77-12.91-14.07-13.57-23.8-.64-9.56,11.14-12,18.24-12.93,6.58-.84,16-1.55,17.67-9.5,2.13-10-11.54-11.3-16.51-16.52-3.46-3.64-1-7.83,2.59-10.53A28.61,28.61,0,0,1,583.36,273c10.44-2.18,21.17,1.87,30.94,5.13,10.36,3.44,20.83,6.81,31.88,6.54,7.26-.17,14.64-2,20.32-6.72,6.84-5.71,7.45-13.47,11.16-21,7.56-15.34,28.68-12.6,42.53-10.66,10.93,1.52,22.06,3.45,33.07,1.62A31.56,31.56,0,0,0,775,234C781.71,223.65,779,212.06,771.22,203.05Z"/><g class="cls-10"><g class="cls-11"><g class="cls-12"><rect class="cls-9" x="279.42" y="360.49" width="411.66" height="5"/><rect class="cls-9" x="279.42" y="370.49" width="411.66" height="5"/><rect class="cls-9" x="279.42" y="380.49" width="411.66" height="5"/><rect class="cls-9" x="279.42" y="390.49" width="411.66" height="5"/><rect class="cls-9" x="279.42" y="400.49" width="411.66" height="5"/><rect class="cls-9" x="279.42" y="410.49" width="411.66" height="5"/><rect class="cls-9" x="279.42" y="420.49" width="411.66" height="5"/><rect class="cls-9" x="279.42" y="430.49" width="411.66" height="5"/><rect class="cls-9" x="279.42" y="440.49" width="411.66" height="5"/><rect class="cls-9" x="279.42" y="450.49" width="411.66" height="5"/><rect class="cls-9" x="279.42" y="460.49" width="411.66" height="5"/><rect class="cls-9" x="279.42" y="470.49" width="411.66" height="5"/><rect class="cls-9" x="279.42" y="480.49" width="411.66" height="5"/><rect class="cls-9" x="279.42" y="490.49" width="411.66" height="5"/><rect class="cls-9" x="279.42" y="500.49" width="411.66" height="5"/><rect class="cls-9" x="279.42" y="510.49" width="411.66" height="5"/><rect class="cls-9" x="279.42" y="520.49" width="411.66" height="5"/><rect class="cls-9" x="279.42" y="530.49" width="411.66" height="5"/><rect class="cls-9" x="279.42" y="540.49" width="411.66" height="5"/><rect class="cls-9" x="279.42" y="550.49" width="411.66" height="5"/><rect class="cls-9" x="279.42" y="560.49" width="411.66" height="5"/><rect class="cls-9" x="279.42" y="570.49" width="411.66" height="5"/><rect class="cls-9" x="279.42" y="580.49" width="411.66" height="5"/><path class="cls-13" d="M543.18,515.67l-5.6-6.21v63.48H681.52V515.67Zm133.34,52.27"/></g></g></g><g class="cls-14"><g class="cls-15"><g class="cls-12"><rect class="cls-9" x="279.42" y="360.49" width="411.66" height="5"/><rect class="cls-9" x="279.42" y="370.49" width="411.66" height="5"/><rect class="cls-9" x="279.42" y="380.49" width="411.66" height="5"/><rect class="cls-9" x="279.42" y="390.49" width="411.66" height="5"/><rect class="cls-9" x="279.42" y="400.49" width="411.66" height="5"/><rect class="cls-9" x="279.42" y="410.49" width="411.66" height="5"/><rect class="cls-9" x="279.42" y="420.49" width="411.66" height="5"/><rect class="cls-9" x="279.42" y="430.49" width="411.66" height="5"/><rect class="cls-9" x="279.42" y="440.49" width="411.66" height="5"/><rect class="cls-9" x="279.42" y="450.49" width="411.66" height="5"/><rect class="cls-9" x="279.42" y="460.49" width="411.66" height="5"/><rect class="cls-9" x="279.42" y="470.49" width="411.66" height="5"/><rect class="cls-9" x="279.42" y="480.49" width="411.66" height="5"/><rect class="cls-9" x="279.42" y="490.49" width="411.66" height="5"/><rect class="cls-9" x="279.42" y="500.49" width="411.66" height="5"/><rect class="cls-9" x="279.42" y="510.49" width="411.66" height="5"/><rect class="cls-9" x="279.42" y="520.49" width="411.66" height="5"/><rect class="cls-9" x="279.42" y="530.49" width="411.66" height="5"/><rect class="cls-9" x="279.42" y="540.49" width="411.66" height="5"/><rect class="cls-9" x="279.42" y="550.49" width="411.66" height="5"/><rect class="cls-9" x="279.42" y="560.49" width="411.66" height="5"/><rect class="cls-9" x="279.42" y="570.49" width="411.66" height="5"/><rect class="cls-9" x="279.42" y="580.49" width="411.66" height="5"/></g></g></g></g></svg>